<svg xmlns="http://www.w3.org/2000/svg" xmlns:xlink="http://www.w3.org/1999/xlink" width="500" zoomAndPan="magnify" viewBox="0 0 375 374.999991" height="500" preserveAspectRatio="xMidYMid meet" version="1.0"><defs><clipPath id="829d489df9"><path d="M 0.511719 0.511719 L 363.386719 0.511719 L 363.386719 363.386719 L 0.511719 363.386719 Z M 0.511719 0.511719 " clip-rule="nonzero"/></clipPath><clipPath id="665029a26a"><path d="M 181.949219 0.511719 C 81.742188 0.511719 0.511719 81.742188 0.511719 181.949219 C 0.511719 282.152344 81.742188 363.386719 181.949219 363.386719 C 282.152344 363.386719 363.386719 282.152344 363.386719 181.949219 C 363.386719 81.742188 282.152344 0.511719 181.949219 0.511719 Z M 181.949219 0.511719 " clip-rule="nonzero"/></clipPath><clipPath id="966642e18d"><path d="M 0.511719 0.511719 L 363.386719 0.511719 L 363.386719 363.386719 L 0.511719 363.386719 Z M 0.511719 0.511719 " clip-rule="nonzero"/></clipPath><clipPath id="f9485c18ba"><path d="M 181.949219 0.511719 C 81.742188 0.511719 0.511719 81.742188 0.511719 181.949219 C 0.511719 282.152344 81.742188 363.386719 181.949219 363.386719 C 282.152344 363.386719 363.386719 282.152344 363.386719 181.949219 C 363.386719 81.742188 282.152344 0.511719 181.949219 0.511719 Z M 181.949219 0.511719 " clip-rule="nonzero"/></clipPath><clipPath id="4da0a0976a"><rect x="0" width="364" y="0" height="364"/></clipPath><clipPath id="1146a85a67"><path d="M 64.285156 64.285156 L 299.238281 64.285156 L 299.238281 299.238281 L 64.285156 299.238281 Z M 64.285156 64.285156 " clip-rule="nonzero"/></clipPath><clipPath id="2948e2eda9"><rect x="0" width="364" y="0" height="364"/></clipPath></defs><g transform="matrix(1, 0, 0, 1, 5, 5)"><g clip-path="url(#2948e2eda9)"><g clip-path="url(#829d489df9)"><g clip-path="url(#665029a26a)"><g transform="matrix(1, 0, 0, 1, 0.000000000000000888, 0)"><g clip-path="url(#4da0a0976a)"><g clip-path="url(#966642e18d)"><g clip-path="url(#f9485c18ba)"><path fill="#ffffff" d="M 0.511719 0.511719 L 363.386719 0.511719 L 363.386719 363.386719 L 0.511719 363.386719 Z M 0.511719 0.511719 " fill-opacity="1" fill-rule="nonzero"/></g></g></g></g></g></g><g clip-path="url(#1146a85a67)"><path fill="#2a89fa" d="M 100.660156 80.667969 C 89.691406 80.667969 80.664062 89.699219 80.664062 100.667969 C 80.664062 111.632812 89.695312 120.664062 100.660156 120.664062 C 154.726562 120.664062 208.792969 120.664062 262.859375 120.664062 C 273.820312 120.664062 282.855469 111.632812 282.855469 100.667969 C 282.855469 89.699219 273.828125 80.667969 262.859375 80.667969 C 208.792969 80.667969 154.726562 80.667969 100.660156 80.667969 M 131.902344 226.175781 L 131.902344 262.859375 C 131.902344 273.828125 140.933594 282.855469 151.902344 282.855469 C 162.867188 282.855469 171.898438 273.824219 171.898438 262.859375 L 171.898438 226.175781 Z M 115.523438 209.796875 L 115.523438 169.800781 L 100.660156 169.800781 C 89.699219 169.800781 80.664062 178.832031 80.664062 189.796875 C 80.664062 200.765625 89.691406 209.796875 100.660156 209.796875 Z M 100.660156 64.289062 C 168.347656 64.289062 195.171875 64.289062 262.859375 64.289062 C 282.867188 64.289062 299.234375 80.65625 299.234375 100.667969 C 299.234375 120.675781 282.863281 137.042969 262.859375 137.042969 L 131.902344 137.042969 C 131.902344 161.296875 131.902344 185.546875 131.902344 209.796875 C 155.648438 209.796875 179.394531 209.796875 203.140625 209.796875 C 214.109375 209.796875 223.136719 200.765625 223.136719 189.800781 C 223.136719 178.835938 214.101562 169.804688 203.140625 169.804688 L 171.898438 169.804688 L 171.898438 153.421875 L 203.140625 153.421875 C 223.144531 153.421875 239.515625 169.792969 239.515625 189.800781 C 239.515625 209.808594 223.148438 226.175781 203.140625 226.175781 L 188.277344 226.175781 L 188.277344 262.863281 C 188.277344 282.867188 171.90625 299.238281 151.902344 299.238281 C 131.890625 299.238281 115.523438 282.871094 115.523438 262.863281 L 115.523438 226.175781 L 100.660156 226.175781 C 80.652344 226.175781 64.285156 209.808594 64.285156 189.796875 C 64.285156 169.792969 80.65625 153.421875 100.660156 153.421875 L 115.523438 153.421875 L 115.523438 137.042969 L 100.660156 137.042969 C 80.65625 137.042969 64.285156 120.675781 64.285156 100.667969 C 64.285156 80.65625 80.652344 64.289062 100.660156 64.289062 Z M 100.660156 64.289062 " fill-opacity="1" fill-rule="evenodd"/></g></g></g></svg>